<svg width="97" height="100" viewBox="0 0 97 100" fill="none" xmlns="http://www.w3.org/2000/svg">
<path d="M76.0082 66.3471L75.6972 66.157C75.2391 67.1806 74.7809 68.2046 74.3233 69.2282C75.0167 68.3251 75.7482 67.4475 76.0082 66.3471ZM77.0698 62.4887C77.6933 61.2113 78.2582 59.8256 78.1748 58.2759C77.8067 59.6803 77.4382 61.0845 77.0698 62.4887ZM14.4481 26.609C14.6255 26.4094 14.8082 26.2138 14.9796 26.0088C18.5168 21.7845 22.4512 17.97 26.7459 14.5186C29.166 12.574 32.0316 11.2385 34.374 9.26229C36.9772 7.06602 39.5785 5.00549 42.7812 3.78943C42.8056 3.77994 42.7841 3.64792 42.7841 3.43335C36.1618 3.98328 30.3513 6.51004 25.3524 10.7355C20.3236 14.9865 16.1876 19.9707 14.4481 26.609V26.609ZM91.7932 37.8125C91.7095 28.9739 88.8519 21.2265 82.4489 14.9848C76.7649 9.44436 70.3725 5.17145 62.1655 4.3897C76.8216 11.3277 86.6838 22.4325 91.7932 37.8125ZM63.8696 8.59213C64.7066 9.74578 65.9753 10.3389 67.0136 11.2233C72.9786 16.3047 77.024 22.6404 79.7099 29.9702C82.358 37.1972 82.8656 44.6521 82.297 52.197C81.9407 56.9235 80.7695 61.5355 79.0639 65.9861C78.9307 66.3336 78.5001 66.7762 79 67.0894C79.4168 67.35 79.6172 66.8171 79.8738 66.5979C82.5674 64.2969 84.73 61.532 86.4903 58.4942C88.1033 55.7111 89.4764 52.8743 89.2808 49.4076C88.4073 33.9178 82.0154 21.3973 69.5795 12.0419C67.7988 10.7021 65.9261 9.48721 63.8696 8.59213V8.59213ZM85.9438 66.566C85.3185 66.5292 84.9604 66.7633 84.7148 67.0702C83.3747 68.7433 81.6441 69.8814 79.8652 71.044C78.841 71.7132 77.8058 72.3716 76.7557 73.0098C75.0521 74.0453 74.1415 75.7868 72.9424 77.2931C69.3756 81.7731 65.2732 85.6862 60.4067 88.7882C54.5984 92.4907 48.4436 94.9016 41.4472 95.2082C37.7061 95.3724 34.1813 95.0253 30.6035 93.9021C24.8264 92.0886 20.1683 88.6984 16.202 84.301C10.2678 77.7214 7.23596 69.7528 5.5502 61.1872C5.42279 60.5389 5.22893 59.9038 5.06585 59.2627C4.61543 60.8645 4.68302 62.4234 4.65598 63.9794C4.5441 70.4776 6.2661 76.593 9.47769 82.0964C12.6064 87.4576 17.1601 91.5954 22.9258 94.2297C28.1386 96.6115 33.5899 97.7666 39.3159 97.4683C45.6097 97.1404 51.5977 95.526 57.3484 92.9852C67.1022 88.676 75.5672 82.7004 81.8437 73.9308C83.4694 71.6598 84.8747 69.2506 85.9438 66.566V66.566ZM29.1295 17.7212C28.8197 17.8507 28.6385 17.8823 28.5151 17.9841C24.8862 20.9837 21.6867 24.413 18.6638 28.0031C16.3418 30.7614 14.3644 33.784 12.5581 36.8947C11.3303 39.0101 10.1522 41.1949 9.87921 43.7193C9.21595 49.8517 9.33618 55.947 10.5724 62.0098C12.3352 70.6574 15.577 78.5678 21.7807 85.0595C24.9388 88.3642 28.7038 90.723 33.0354 92.0458C40.0511 94.1886 46.6261 92.3944 52.9693 89.3496C57.0734 87.3797 60.6805 84.6401 64.0428 81.6143C65.5744 80.2363 67.045 78.7186 68.255 76.7317C66.0953 76.9782 64.2243 77.4565 62.3024 77.6592C55.7621 78.3493 49.6272 77.0259 43.8923 73.976C36.0894 69.8267 30.8572 63.3843 27.9068 55.1031C24.1473 44.552 24.4194 33.8994 27.3557 23.2232C27.8521 21.418 28.5016 19.6549 29.1295 17.7212V17.7212ZM46.0348 8.19205C43.4157 8.62579 41.402 9.44579 39.6403 10.871C37.8574 12.3128 36.7814 14.2514 35.6246 16.1977C34.0375 18.8674 32.9439 21.7531 32.1023 24.6454C31.3583 27.2012 30.8472 29.8948 30.5452 32.608C29.8293 39.0308 29.7228 45.3671 31.561 51.6534C33.478 58.2111 36.6379 63.9619 41.8303 68.5106C50.2438 75.8809 60.696 77.1303 70.5747 72.7001C71.2172 72.4122 71.8086 72.0587 72.1796 71.4348C74.602 67.365 76.3257 62.977 77.3985 58.4036C78.8516 52.2105 79.0673 45.9021 78.2318 39.571C77.0353 30.5031 73.7661 22.3522 67.4776 15.5986C64.2191 12.0997 60.6719 8.92578 55.7256 7.98439C54.2501 7.70368 52.6055 7.14425 51.4101 8.36952C50.1029 9.70954 48.8673 11.221 47.9963 12.8673C44.2998 19.8565 43.5238 27.2185 45.7716 34.8198C46.6454 37.7751 48.5172 40.0568 51.132 41.7264C51.629 42.0439 52.6532 42.2545 52.3101 42.9819C52.0078 43.6236 51.046 43.4406 50.3439 43.2393C50.0825 43.1642 49.8322 43.0262 49.5993 42.8812C46.6716 41.0586 44.2685 38.7185 42.9598 35.4868C40.1819 28.627 40.4954 21.6858 42.6578 14.7366C43.3581 12.4851 44.5112 10.4467 46.0348 8.19205V8.19205ZM13.8662 18.2887C13.4722 18.2982 13.3289 18.6235 13.1748 18.8881C11.7203 21.389 10.3906 23.96 9.49667 26.7129C9.19035 27.6554 8.35049 28.4642 8.58577 29.6256C9.138 29.3371 9.38219 28.9414 9.40751 28.3865C9.45065 27.438 9.93155 26.6387 10.3193 25.8086C11.4936 23.2945 12.6648 20.7789 13.8369 18.2637C15.5077 16.0726 17.1791 13.8815 18.8499 11.6907C17.7123 12.7091 16.6041 13.7397 15.7556 15.0127C15.0538 16.0651 14.0342 16.9294 13.8662 18.2887V18.2887ZM0.000244141 63.0124C0.103501 58.2134 0.761583 53.4812 2.4249 49.0006C4.17134 44.2966 5.05722 39.4226 6.14415 34.5649C8.12126 25.7243 11.5149 17.5006 17.8777 10.8016C23.1976 5.2005 29.6368 1.57273 37.3106 0.438352C42.9115 -0.38971 48.4916 -0.0744766 53.9418 1.63975C54.5072 1.8175 55.0908 1.97799 55.7015 1.87502C61.0118 0.980517 66.0602 1.92363 70.9497 4.02701C76.9202 6.59547 82.2038 10.1513 86.6007 14.9601C89.9754 18.6508 92.6411 22.828 94.206 27.5717C95.9855 32.9669 96.7656 38.5105 95.6683 44.2071C95.41 45.546 95.5144 47.0362 95.1267 48.2741C94.6492 49.7982 94.4404 51.3747 93.9428 52.8706C93.0926 55.4278 92.7981 58.0941 92.2151 60.7025C91.4814 63.9846 90.2386 67.0871 88.7746 70.0937C86.7399 74.2716 84.1746 78.1554 80.873 81.3975C77.9338 84.284 74.8974 87.086 71.2365 89.2021C68.6206 90.7144 66.1177 92.4418 63.4005 93.8032C54.6257 98.1989 45.3819 100.508 35.5294 99.905C27.9163 99.4394 20.9043 97.1088 14.7245 92.5698C6.09266 86.2298 1.35811 77.6454 0.275788 67.0207C0.140318 65.689 0.0902699 64.3487 0.000244141 63.0124" fill="#FF5678"/>
</svg>
