<svg width="69" height="62" viewBox="0 0 69 62" fill="none" xmlns="http://www.w3.org/2000/svg">
<path d="M4.0293 55.0593C2.44471 55.0593 1.11339 53.8055 1.03392 52.2088C0.534217 42.2225 0 28.4241 0 19.6455C0 14.6886 0.0766607 9.3501 0.234397 3.32484C0.279751 1.59417 1.66968 0.193009 3.39836 0.135212C7.41803 0.000354389 12.0221 -0.00205379 13.9956 0.00155847H14.2396C23.3313 0.00155847 32.5985 0.25241 41.5601 0.494432C44.8666 0.584338 48.1702 0.673039 51.4686 0.750903C53.1704 0.791039 54.5194 2.15607 54.5391 3.85946C54.6498 13.4159 54.9171 23.1586 55.1756 32.581C55.3462 38.8114 55.5228 45.2536 55.6525 51.5791C55.6689 52.3654 55.3607 53.1364 54.8076 53.6943C54.2541 54.2522 53.4939 54.55 52.6992 54.5564C46.8738 54.4798 41.5541 54.4424 36.4367 54.4424C24.6759 54.4424 14.1164 54.6435 4.15413 55.0569C4.11238 55.0585 4.07104 55.0593 4.0293 55.0593ZM13.6721 1.53998C11.5641 1.53998 7.23862 1.5456 3.44933 1.67283C2.53261 1.70334 1.79571 2.44666 1.77162 3.36498C1.61469 9.377 1.53843 14.7023 1.53843 19.6455C1.53843 28.3956 2.07144 42.1643 2.57034 52.1322C2.61048 52.9305 3.30644 53.5562 4.09071 53.5197C14.0739 53.1051 24.6546 52.9036 36.4371 52.9036C41.5613 52.9036 46.887 52.9409 52.7193 53.0176C53.107 53.0328 53.4546 52.8735 53.7159 52.6102C53.9776 52.3469 54.1228 51.9821 54.1156 51.6104C53.986 45.2902 53.8094 38.8507 53.6388 32.6231C53.3803 23.1947 53.113 13.4456 53.0014 3.87712C52.9914 3.00696 52.3027 2.30899 51.4329 2.28852C48.1329 2.21106 44.8272 2.12196 41.5192 2.03205C32.5667 1.79003 23.3105 1.53998 14.2396 1.53998H13.9952C13.8948 1.53998 13.7865 1.53998 13.6721 1.53998Z" fill="#FF5678"/>
<path d="M28.004 47.1531C18.6751 47.1531 17.042 44.3728 15.6011 41.9205C14.5732 40.1705 13.7608 38.7882 9.54407 38.7882C8.44192 38.7882 7.26833 38.9058 6.13327 39.0198C5.79693 39.0535 5.46058 39.0872 5.12544 39.1185C4.91754 39.1366 4.70762 39.0704 4.54868 38.9319C4.39014 38.7934 4.29542 38.596 4.28619 38.3852C4.15334 35.2975 4.08832 31.9309 4.08832 28.0946C4.08832 24.4229 4.14692 20.6902 4.20351 17.0795C4.2601 13.4777 4.3179 9.75378 4.3179 6.09974C4.3179 5.45073 4.31629 4.80132 4.31188 4.15272C4.31067 3.94682 4.39215 3.74894 4.53785 3.60365C4.68354 3.45795 4.86175 3.37126 5.08731 3.37888L50.0462 3.76018C50.462 3.76379 50.7995 4.09693 50.8088 4.51274C51.0428 15.1867 51.17 26.6284 51.1985 39.4914C51.1993 39.8912 50.8943 40.2247 50.4965 40.2596C40.9232 41.0957 39.0941 42.8376 37.4798 44.374C35.9137 45.8647 34.5603 47.1531 28.004 47.1531ZM9.54407 37.2498C14.6414 37.2498 15.8037 39.2281 16.9272 41.1414C18.2192 43.3405 19.5553 45.6146 28.004 45.6146C33.9454 45.6146 35.0371 44.5755 36.4194 43.259C38.0871 41.6712 40.1521 39.7049 49.6593 38.7906C49.6283 26.5209 49.5067 15.5471 49.2876 5.29139L5.85472 4.92294C5.85593 5.31507 5.85673 5.70721 5.85673 6.09934C5.85673 9.76542 5.79813 13.4957 5.74194 17.1032C5.68535 20.7079 5.62715 24.4345 5.62715 28.0942C5.62715 31.5753 5.68053 34.6646 5.7901 37.5078C5.85352 37.5014 5.91653 37.495 5.97995 37.4886C7.15234 37.3714 8.36486 37.2498 9.54407 37.2498Z" fill="#FF5678"/>
<path d="M44.6828 14.5625C44.2582 14.5625 43.9138 14.2181 43.9138 13.7935V10.9037C41.3322 10.8804 38.7563 10.8696 36.1835 10.8696C28.228 10.8696 19.6938 10.9747 10.0931 11.1903C9.66205 11.1947 9.31607 10.8631 9.30684 10.4389C9.29721 10.0139 9.63396 9.66227 10.0582 9.65263C19.6705 9.4363 28.2164 9.33154 36.1831 9.33154C39.0139 9.33154 41.8488 9.34479 44.6905 9.37288C45.1119 9.3773 45.4518 9.72046 45.4518 10.1419V13.7931C45.4518 14.2181 45.1075 14.5625 44.6828 14.5625Z" fill="#FF5678"/>
<path d="M45.756 19.7207C45.748 19.7207 11.0356 19.3511 11.0356 19.3511C10.6138 19.3467 10.2747 19.0035 10.2747 18.5821L10.2787 16.8122C10.2787 15.7783 10.2646 14.6731 10.1647 13.5894C10.1374 13.2924 10.2839 13.0067 10.5404 12.8558C10.798 12.7053 11.1187 12.7153 11.3644 12.8839C13.7529 14.5165 16.6254 16.3727 19.8183 17.7561C19.9058 17.7939 19.9828 17.8464 20.0479 17.9091L45.7644 18.1828C46.1891 18.1872 46.5298 18.5351 46.5254 18.9602C46.5202 19.3816 46.1766 19.7207 45.756 19.7207ZM11.8143 17.8212L16.5219 17.8709C14.8161 16.9667 13.2319 15.9798 11.7922 15.0262C11.8127 15.6359 11.8171 16.2351 11.8171 16.8118L11.8143 17.8212Z" fill="#FF5678"/>
<path d="M11.4164 26.2542C10.9962 26.2542 10.653 25.9158 10.6478 25.4943C10.643 25.07 10.983 24.7212 11.4072 24.716C19.0427 24.6225 26.9384 24.5261 34.8565 24.5261C38.307 24.5261 41.481 24.5442 44.5583 24.5815C44.9833 24.5867 45.3233 24.9356 45.3181 25.3598C45.3128 25.7845 44.9946 26.1201 44.5398 26.1197C41.4686 26.0823 38.301 26.0643 34.8565 26.0643C26.9472 26.0647 19.0572 26.161 11.4164 26.2542Z" fill="#FF5678"/>
<path d="M11.5449 34.6648C11.1183 34.6648 10.7506 34.3204 10.7506 33.8957C10.7506 33.471 11.0717 33.1266 11.4963 33.1266C21.8901 33.1266 33.583 33.1266 44.1413 32.9015L43.65 28.4805C43.6031 28.0586 43.9073 27.6781 44.3299 27.6311C44.7478 27.5834 45.1323 27.8888 45.1792 28.3111L45.7628 33.567C45.7865 33.7817 45.7191 33.9961 45.577 34.1586C45.4349 34.3212 45.2314 34.4163 45.0155 34.4211C34.224 34.6648 22.1754 34.6648 11.5449 34.6648Z" fill="#FF5678"/>
<path d="M37.5742 34.3965C37.3149 34.3965 37.0621 34.2656 36.9172 34.0284C36.696 33.666 36.81 33.1928 37.1724 32.9708C39.5088 31.5432 41.5216 29.5304 43.4682 27.5838C43.7688 27.2839 44.2552 27.2839 44.5563 27.5838C44.8565 27.884 44.8565 28.3712 44.5563 28.6718C42.5459 30.6819 40.4672 32.7605 37.9748 34.2837C37.8495 34.36 37.7111 34.3965 37.5742 34.3965Z" fill="#FF5678"/>
<path d="M52.7221 61.4299C48.409 61.4299 44.2982 60.172 40.8345 57.7923C40.6575 57.6707 40.5395 57.4804 40.5086 57.2681C40.4781 57.0554 40.5375 56.8398 40.6731 56.6729C41.5726 55.5663 42.4175 54.3883 43.2346 53.2492C43.4827 52.904 43.9631 52.8253 44.3075 53.0726C44.6526 53.3202 44.7317 53.8007 44.4841 54.1454C43.8138 55.0798 43.1251 56.0403 42.3962 56.9767C45.453 58.8864 49.0046 59.8915 52.7221 59.8915C57.6669 59.8915 61.2856 58.7785 63.4774 56.5834C66.4817 53.5743 66.4748 49.0404 66.4688 45.3975L66.4684 44.946C66.4684 43.8217 66.458 42.6947 66.4463 41.5692C62.8914 43.1494 58.9212 44.0433 55.3799 44.0433C55.1427 44.0433 54.9051 44.0393 54.6675 44.0325C54.2428 44.0192 53.9093 43.6644 53.9226 43.2397C53.9358 42.8155 54.2709 42.4691 54.7153 42.4948C54.9372 42.502 55.1584 42.5052 55.3803 42.5052C59.0616 42.5052 63.2463 41.4737 66.8605 39.6752C67.0969 39.5568 67.3791 39.5696 67.6047 39.7077C67.8306 39.8461 67.9691 40.091 67.9719 40.3559L67.9791 41.0583C67.9932 42.3527 68.0068 43.6512 68.0068 44.946L68.0072 45.3947C68.0133 49.1146 68.0213 54.2092 64.5659 57.6699C62.0398 60.2001 58.1658 61.4299 52.7221 61.4299Z" fill="#FF5678"/>
<path d="M59.1491 60.6343C59.0704 60.6343 58.9905 60.6222 58.9115 60.5965C58.5077 60.4653 58.2861 60.0319 58.4174 59.6273C59.013 57.794 59.467 55.9277 59.9574 53.8528C60.018 53.5971 60.2051 53.39 60.4527 53.3033C61.4914 52.9417 62.5153 52.56 63.4979 52.1691C63.8912 52.0106 64.3395 52.2044 64.4969 52.5994C64.6538 52.9939 64.4616 53.441 64.0666 53.5983C63.19 53.9471 62.2805 54.289 61.3574 54.6161C60.8954 56.5626 60.4539 58.337 59.8804 60.1025C59.7748 60.428 59.4734 60.6343 59.1491 60.6343Z" fill="#FF5678"/>
</svg>
