<svg width="71" height="62" viewBox="0 0 71 62" fill="none" xmlns="http://www.w3.org/2000/svg">
<path d="M1.3237 31.501C1.13008 31.501 1.12971 31.8022 1.3237 31.8022C1.51732 31.8022 1.51769 31.501 1.3237 31.501Z" fill="#E0DFE6"/>
<path d="M55.9344 23.9561C55.5652 23.9561 55.2551 23.668 55.2323 23.2948C54.973 19.0274 54.7584 15.3218 54.7584 13.1903C54.7584 11.373 54.8352 9.51666 54.9101 7.72097C54.9844 5.93262 55.0608 4.08329 55.0608 2.28099C55.0608 2.10392 54.9223 1.95844 54.7448 1.94962C47.0923 1.58042 40.7652 1.40812 34.8331 1.40812C27.2808 1.40812 21.1517 1.68034 14.9595 2.29091C14.5745 2.32691 14.2281 2.04697 14.1899 1.65977C14.1517 1.27293 14.4342 0.928338 14.821 0.890132C21.061 0.274424 27.2327 0 34.8331 0C40.7884 0 47.1368 0.172663 54.8128 0.543337C55.7415 0.588156 56.4689 1.35118 56.4689 2.28062C56.4689 4.11232 56.3917 5.97634 56.3168 7.77901C56.2429 9.56038 56.1665 11.4024 56.1665 13.1903C56.1665 15.2821 56.3796 18.9654 56.6378 23.2092C56.6614 23.5975 56.366 23.9311 55.9781 23.9546C55.963 23.9557 55.9487 23.9561 55.9344 23.9561Z" fill="#FF5678"/>
<path d="M17.4208 43.0176C13.1079 43.0176 8.75947 42.9603 4.49512 42.8468C3.24645 42.8137 2.18918 41.8942 1.98198 40.6609C0.667192 32.8396 6.10352e-05 20.8611 6.10352e-05 5.058V4.9015C0.000795761 3.7542 0.823322 2.78692 1.95627 2.60176C5.3147 2.05108 8.43692 1.60803 11.5 1.24874C11.885 1.20356 12.2362 1.47945 12.2814 1.86592C12.3269 2.25203 12.0503 2.60176 11.6642 2.64732C8.62244 3.0044 5.52116 3.44378 2.18403 3.99116C1.73438 4.06463 1.40816 4.4478 1.40816 4.90223V5.05837C1.40816 20.7836 2.06832 32.6838 3.37062 40.4276C3.4665 40.9989 3.95546 41.4247 4.53295 41.4401C8.78445 41.5529 13.1204 41.6102 17.4208 41.6102C25.8441 41.6102 33.5344 41.4588 40.2796 41.1598C40.6734 41.1561 40.997 41.4434 41.0139 41.8321C41.0312 42.2208 40.7303 42.5495 40.3417 42.5664C33.5767 42.8659 25.8646 43.0176 17.4208 43.0176Z" fill="#FF5678"/>
<path d="M40.6308 59.1619C40.4886 59.1619 40.346 59.1185 40.2245 59.0326C39.7961 58.7299 39.3538 58.4426 38.9126 58.1553C38.1782 57.6781 37.4193 57.1847 36.7213 56.6194C36.5145 56.4515 36.4197 56.1815 36.4766 55.9214C40.2138 38.8609 61.7603 13.4507 65.7278 13.4507C67.7663 13.4507 69.1902 15.0164 69.1902 17.258C69.1902 20.2887 65.7759 26.2451 62.1622 32.5508C60.5616 35.3434 58.9063 38.2309 57.698 40.6477C57.072 41.8993 56.3623 43.1774 55.5284 44.5553C52.4815 49.5925 48.8001 53.6335 44.5869 56.5661L43.138 57.5719C42.4367 58.058 41.7347 58.5447 41.0345 59.0344C40.9129 59.1193 40.7718 59.1619 40.6308 59.1619ZM37.949 55.7925C38.4931 56.2035 39.0724 56.5801 39.6797 56.975C39.9974 57.1814 40.3152 57.3883 40.6285 57.6006C41.1972 57.2038 41.7666 56.8093 42.3357 56.4151L43.7823 55.4108C47.8325 52.5917 51.379 48.694 54.3234 43.8265C55.1379 42.4812 55.8292 41.2355 56.4383 40.0181C57.6646 37.5656 59.3298 34.6605 60.94 31.8509C64.147 26.2557 67.7817 19.914 67.7817 17.2584C67.7817 15.8007 66.975 14.8591 65.7271 14.8591C63.0876 15.052 42.0679 38.1692 37.949 55.7925Z" fill="#FF5678"/>
<path d="M67.8435 20.7676C67.7476 20.7676 67.6503 20.7481 67.5573 20.7066C66.3116 20.1512 64.1831 19.3952 60.8585 18.3273C60.4882 18.2087 60.2847 17.812 60.4033 17.442C60.5224 17.0721 60.9198 16.8683 61.2887 16.9869C64.7092 18.0856 66.8193 18.8361 68.1301 19.4205C68.4853 19.5789 68.6447 19.9951 68.4864 20.3499C68.3699 20.6122 68.1128 20.7676 67.8435 20.7676Z" fill="#FF5678"/>
<path d="M68.3505 16.0601C68.2822 16.0601 68.2124 16.0501 68.1433 16.0288C67.7715 15.9146 67.5629 15.5208 67.6771 15.1494C67.9071 14.4003 68.2447 13.685 68.5706 12.9929C68.6367 12.8522 68.7032 12.7115 68.7689 12.5701C68.3229 12.3875 67.8402 12.2211 67.3131 12.0671C67.2793 12.1131 67.2455 12.159 67.2117 12.2049C66.7484 12.832 66.3109 13.4246 66.0578 14.1204C65.9252 14.4859 65.5207 14.674 65.1559 14.5414C64.7904 14.4087 64.6019 14.0046 64.7349 13.6395C65.0574 12.7527 65.5769 12.0491 66.0791 11.3688C66.2055 11.198 66.3318 11.0268 66.4556 10.8519C66.6254 10.6116 66.9273 10.5029 67.2113 10.5778C68.2792 10.8618 69.1932 11.1891 70.0051 11.5785C70.3449 11.742 70.4963 12.1436 70.3479 12.4904C70.1877 12.8647 70.0154 13.2306 69.8446 13.5939C69.5253 14.271 69.2245 14.9106 69.0235 15.5637C68.9298 15.8654 68.6514 16.0601 68.3505 16.0601Z" fill="#FF5678"/>
<path d="M64.8535 35.2419C64.4814 35.2419 63.9039 35.1012 63.4002 34.7761C62.7129 34.3327 62.3183 33.6546 62.2897 32.8666C62.2059 30.5893 64.0795 29.2014 65.8909 27.8591C67.7649 26.4704 69.5355 25.1589 69.4544 22.9467C69.4026 21.5434 68.7182 20.2271 67.6682 19.5115C67.3472 19.2925 67.2641 18.8546 67.4831 18.5332C67.702 18.2121 68.1403 18.1287 68.4614 18.348C69.8735 19.3105 70.793 21.0529 70.861 22.8945C70.9694 25.8485 68.7167 27.5174 66.7289 28.9902C66.032 29.5063 65.3752 29.9931 64.852 30.4978C65.1015 30.4508 65.3134 30.4255 65.5118 30.4185C66.2723 30.3891 66.7238 30.6819 66.9725 30.9298C67.2954 31.2535 67.4761 31.7053 67.4956 32.2362C67.5136 32.7226 67.2686 33.4319 66.8858 34.001C66.3663 34.7728 65.6628 35.2133 64.9038 35.2408C64.8877 35.2416 64.8708 35.2419 64.8535 35.2419ZM64.1772 31.2781C63.8569 31.7472 63.6754 32.2487 63.6963 32.8144C63.7272 33.6469 64.7117 33.8269 64.8524 33.8342C65.578 33.8074 66.0992 32.5911 66.089 32.288C66.0827 32.1205 66.0427 31.9915 65.9762 31.925C65.8796 31.828 65.6709 31.8218 65.5636 31.8251C65.4167 31.8306 65.2389 31.8549 65.0196 31.9C64.6368 31.9765 64.2665 31.7322 64.1882 31.3519C64.1834 31.3273 64.1794 31.3027 64.1772 31.2781Z" fill="#FF5678"/>
<path d="M49.4071 37.5608C48.3182 37.5608 47.326 36.796 46.9501 36.4668C46.6574 36.2112 46.628 35.7663 46.884 35.4739C47.1393 35.1811 47.5846 35.151 47.877 35.4078C48.3781 35.846 48.9339 36.1259 49.3468 36.1513C50.2645 35.6903 53.2339 30.8387 53.6519 29.7411C53.552 29.5677 53.0594 29.2084 52.4165 28.9939C52.0476 28.8708 51.8485 28.4723 51.9716 28.1038C52.0943 27.735 52.4933 27.5359 52.8621 27.659C53.232 27.7824 55.0762 28.4642 55.0762 29.7793C55.0762 30.266 51.2733 37.5608 49.4071 37.5608Z" fill="#FF5678"/>
<path d="M47.4729 54.0781C47.3322 54.0781 47.1904 54.0359 47.0666 53.9484C44.5417 52.159 41.9092 50.656 39.2418 49.4808C38.8858 49.3239 38.7246 48.9084 38.8814 48.5528C39.0386 48.1972 39.4538 48.0356 39.8094 48.1921C42.5635 49.4055 45.2794 50.9558 47.8811 52.7993C48.1981 53.0241 48.273 53.4639 48.0486 53.7809C47.9108 53.9749 47.6937 54.0781 47.4729 54.0781Z" fill="#FF5678"/>
<path d="M36.0259 61.4302C35.8433 61.4302 35.4642 61.4302 35.2081 61.1076C35.0171 60.8673 35.0175 60.6065 35.0175 60.3761C35.0175 59.3126 35.5648 58.4749 36.0942 57.6648C36.3705 57.2423 36.6313 56.843 36.8006 56.4363C36.9498 56.0777 37.362 55.9072 37.7213 56.0571C38.0802 56.2063 38.2499 56.6185 38.1004 56.9778C37.8811 57.5046 37.5717 57.9778 37.2727 58.4356C37.0909 58.7133 36.9134 58.9852 36.7679 59.2523C37.1647 58.8467 37.5916 58.379 37.8667 58.0778C38.1797 57.7353 38.4586 57.43 38.6566 57.2324C38.9317 56.9572 39.3773 56.9576 39.6521 57.232C39.9269 57.5068 39.9273 57.9525 39.6525 58.2276C39.4651 58.415 39.2025 58.7038 38.9067 59.0275C37.233 60.8596 36.6173 61.4302 36.0259 61.4302ZM36.4267 60.4963H36.4333H36.4267Z" fill="#FF5678"/>
<path d="M29.1848 24.4817C27.5603 24.4817 26.071 23.2587 25.304 22.5005L0.658765 4.43549C0.345405 4.20552 0.277443 3.76505 0.507412 3.45168C0.73738 3.13832 1.17785 3.07035 1.49121 3.29996L26.179 21.3962C26.2081 21.4175 26.2353 21.4406 26.2606 21.466C27.2826 22.4876 28.3487 23.0736 29.1852 23.0736C29.6271 23.0736 30.0198 22.9167 30.3857 22.5945C33.2012 20.1133 36.0956 17.6321 38.8953 15.2332C44.2275 10.6631 49.7413 5.9373 54.9442 1.00464C55.2256 0.737197 55.6709 0.748952 55.9394 1.03109C56.2065 1.31323 56.1944 1.75922 55.9126 2.02629C50.6839 6.98356 45.1566 11.7208 39.8111 16.3019C37.0151 18.6978 34.1244 21.1757 31.3162 23.6503C30.6906 24.2021 29.9739 24.4817 29.1848 24.4817Z" fill="#FF5678"/>
<path d="M3.12409 42.1904C3.09323 42.1904 3.06237 42.1886 3.03114 42.1842C2.64578 42.1335 2.3743 41.7797 2.42536 41.3944C2.82579 38.3556 8.24036 31.3665 18.5185 20.6213C18.7874 20.3399 19.2326 20.3299 19.5137 20.5992C19.7947 20.8681 19.8046 21.3137 19.5357 21.5944C6.33558 35.395 4.02376 40.0384 3.82098 41.578C3.77395 41.9329 3.47161 42.1904 3.12409 42.1904Z" fill="#FF5678"/>
<path d="M49.2211 29.3945C49.0146 29.3945 48.8104 29.3038 48.6712 29.1304C48.2718 28.6308 47.9434 28.3039 47.5731 28.0361C47.5158 27.9946 47.4651 27.945 47.4225 27.8884C47.406 27.8715 46.4314 26.79 38.0401 20.187C37.7345 19.9467 37.682 19.5041 37.9222 19.1988C38.1628 18.8932 38.6062 18.8406 38.9104 19.0809C46.4023 24.9761 48.0823 26.5424 48.4563 26.9381C48.9107 27.2749 49.3074 27.672 49.7703 28.251C50.0131 28.5548 49.9639 28.9978 49.6605 29.2406C49.5308 29.3442 49.3754 29.3945 49.2211 29.3945Z" fill="#FF5678"/>
</svg>
